<?xml version="1.0" encoding="UTF-8" standalone="no"?>
<!DOCTYPE svg PUBLIC "-//W3C//DTD SVG 1.1//EN"
 "http://www.w3.org/Graphics/SVG/1.1/DTD/svg11.dtd">
<!-- Generated by graphviz version 2.43.0 (0)
 -->
<!-- Title: AARRR_Optimization_Accommodation Pages: 1 -->
<svg width="625pt" height="315pt"
 viewBox="0.00 0.00 625.00 315.00" xmlns="http://www.w3.org/2000/svg" xmlns:xlink="http://www.w3.org/1999/xlink">
<g id="graph0" class="graph" transform="scale(1 1) rotate(0) translate(4 311)">
<title>AARRR_Optimization_Accommodation</title>
<polygon fill="#343541" stroke="transparent" points="-4,4 -4,-311 621,-311 621,4 -4,4"/>
<g id="clust1" class="cluster">
<title>cluster_0</title>
<polygon fill="lightgrey" stroke="lightgrey" points="174,-200 174,-275 609,-275 609,-200 174,-200"/>
<text text-anchor="middle" x="391.5" y="-259.8" font-family="Times,serif" font-size="14.00">AARRR 단계</text>
</g>
<g id="clust2" class="cluster">
<title>cluster_1</title>
<polygon fill="lightgrey" stroke="lightgrey" points="8,-8 8,-299 154,-299 154,-8 8,-8"/>
<text text-anchor="middle" x="81" y="-283.8" font-family="Times,serif" font-size="14.00">최적화 전략</text>
</g>
<!-- 획득 -->
<g id="node1" class="node">
<title>획득</title>
<polygon fill="#aec6cf" stroke="grey" points="236,-244 182,-244 182,-208 236,-208 236,-244"/>
<text text-anchor="middle" x="209" y="-222.3" font-family="Helvetica,sans-Serif" font-size="14.00" fill="#343541">획득</text>
</g>
<!-- 활성화 -->
<g id="node2" class="node">
<title>활성화</title>
<polygon fill="#aec6cf" stroke="grey" points="331,-244 272,-244 272,-208 331,-208 331,-244"/>
<text text-anchor="middle" x="301.5" y="-222.3" font-family="Helvetica,sans-Serif" font-size="14.00" fill="#343541">활성화</text>
</g>
<!-- 획득&#45;&gt;활성화 -->
<g id="edge1" class="edge">
<title>획득&#45;&gt;활성화</title>
<path fill="none" stroke="#aaaaaa" d="M236.18,-226C244.12,-226 253.02,-226 261.61,-226"/>
<polygon fill="#aaaaaa" stroke="#aaaaaa" points="261.85,-229.5 271.85,-226 261.85,-222.5 261.85,-229.5"/>
</g>
<!-- 유지 -->
<g id="node3" class="node">
<title>유지</title>
<polygon fill="#aec6cf" stroke="grey" points="421,-244 367,-244 367,-208 421,-208 421,-244"/>
<text text-anchor="middle" x="394" y="-222.3" font-family="Helvetica,sans-Serif" font-size="14.00" fill="#343541">유지</text>
</g>
<!-- 활성화&#45;&gt;유지 -->
<g id="edge2" class="edge">
<title>활성화&#45;&gt;유지</title>
<path fill="none" stroke="#aaaaaa" d="M331.13,-226C339.23,-226 348.16,-226 356.65,-226"/>
<polygon fill="#aaaaaa" stroke="#aaaaaa" points="356.7,-229.5 366.7,-226 356.7,-222.5 356.7,-229.5"/>
</g>
<!-- 추천 -->
<g id="node4" class="node">
<title>추천</title>
<polygon fill="#aec6cf" stroke="grey" points="511,-244 457,-244 457,-208 511,-208 511,-244"/>
<text text-anchor="middle" x="484" y="-222.3" font-family="Helvetica,sans-Serif" font-size="14.00" fill="#343541">추천</text>
</g>
<!-- 유지&#45;&gt;추천 -->
<g id="edge3" class="edge">
<title>유지&#45;&gt;추천</title>
<path fill="none" stroke="#aaaaaa" d="M421.4,-226C429.39,-226 438.31,-226 446.82,-226"/>
<polygon fill="#aaaaaa" stroke="#aaaaaa" points="446.92,-229.5 456.92,-226 446.92,-222.5 446.92,-229.5"/>
</g>
<!-- 수익 -->
<g id="node5" class="node">
<title>수익</title>
<polygon fill="#aec6cf" stroke="grey" points="601,-244 547,-244 547,-208 601,-208 601,-244"/>
<text text-anchor="middle" x="574" y="-222.3" font-family="Helvetica,sans-Serif" font-size="14.00" fill="#343541">수익</text>
</g>
<!-- 추천&#45;&gt;수익 -->
<g id="edge4" class="edge">
<title>추천&#45;&gt;수익</title>
<path fill="none" stroke="#aaaaaa" d="M511.4,-226C519.39,-226 528.31,-226 536.82,-226"/>
<polygon fill="#aaaaaa" stroke="#aaaaaa" points="536.92,-229.5 546.92,-226 536.92,-222.5 536.92,-229.5"/>
</g>
<!-- SEO &amp; PPC -->
<g id="node6" class="node">
<title>SEO &amp; PPC</title>
<polygon fill="#fed8b1" stroke="grey" points="127,-268 35,-268 35,-232 127,-232 127,-268"/>
<text text-anchor="middle" x="81" y="-246.3" font-family="Helvetica,sans-Serif" font-size="14.00" fill="#343541">SEO &amp; PPC</text>
</g>
<!-- SEO &amp; PPC&#45;&gt;획득 -->
<g id="edge5" class="edge">
<title>SEO &amp; PPC&#45;&gt;획득</title>
<path fill="none" stroke="#aaaaaa" d="M127.13,-241.4C141.76,-238.62 157.8,-235.56 171.7,-232.91"/>
<polygon fill="#aaaaaa" stroke="#aaaaaa" points="172.69,-236.29 181.86,-230.98 171.38,-229.41 172.69,-236.29"/>
</g>
<!-- 편리한 예약 절차 -->
<g id="node7" class="node">
<title>편리한 예약 절차</title>
<polygon fill="#fed8b1" stroke="grey" points="143.5,-214 18.5,-214 18.5,-178 143.5,-178 143.5,-214"/>
<text text-anchor="middle" x="81" y="-192.3" font-family="Helvetica,sans-Serif" font-size="14.00" fill="#343541">편리한 예약 절차</text>
</g>
<!-- 편리한 예약 절차&#45;&gt;활성화 -->
<g id="edge6" class="edge">
<title>편리한 예약 절차&#45;&gt;활성화</title>
<path fill="none" stroke="#aaaaaa" d="M143.68,-191.94C172.07,-191.41 206.04,-192.68 236,-199 244.8,-200.86 253.91,-203.9 262.42,-207.29"/>
<polygon fill="#aaaaaa" stroke="#aaaaaa" points="261.14,-210.55 271.71,-211.22 263.86,-204.1 261.14,-210.55"/>
</g>
<!-- 고객 지원 및 혜택 -->
<g id="node8" class="node">
<title>고객 지원 및 혜택</title>
<polygon fill="#fed8b1" stroke="grey" points="146,-160 16,-160 16,-124 146,-124 146,-160"/>
<text text-anchor="middle" x="81" y="-138.3" font-family="Helvetica,sans-Serif" font-size="14.00" fill="#343541">고객 지원 및 혜택</text>
</g>
<!-- 고객 지원 및 혜택&#45;&gt;유지 -->
<g id="edge7" class="edge">
<title>고객 지원 및 혜택&#45;&gt;유지</title>
<path fill="none" stroke="#aaaaaa" d="M146.08,-153.27C196.91,-163.02 269.39,-178.73 331,-199 339.75,-201.88 348.96,-205.53 357.53,-209.21"/>
<polygon fill="#aaaaaa" stroke="#aaaaaa" points="356.31,-212.5 366.87,-213.34 359.14,-206.09 356.31,-212.5"/>
</g>
<!-- 추천 프로그램 -->
<g id="node9" class="node">
<title>추천 프로그램</title>
<polygon fill="#fed8b1" stroke="grey" points="134.5,-106 27.5,-106 27.5,-70 134.5,-70 134.5,-106"/>
<text text-anchor="middle" x="81" y="-84.3" font-family="Helvetica,sans-Serif" font-size="14.00" fill="#343541">추천 프로그램</text>
</g>
<!-- 추천 프로그램&#45;&gt;추천 -->
<g id="edge8" class="edge">
<title>추천 프로그램&#45;&gt;추천</title>
<path fill="none" stroke="#aaaaaa" d="M134.51,-103.51C201.6,-123.71 321.01,-160.96 421,-199 429.69,-202.31 438.94,-206.15 447.56,-209.88"/>
<polygon fill="#aaaaaa" stroke="#aaaaaa" points="446.42,-213.2 456.98,-214.02 449.23,-206.79 446.42,-213.2"/>
</g>
<!-- 추가 서비스 제공 -->
<g id="node10" class="node">
<title>추가 서비스 제공</title>
<polygon fill="#fed8b1" stroke="grey" points="143.5,-52 18.5,-52 18.5,-16 143.5,-16 143.5,-52"/>
<text text-anchor="middle" x="81" y="-30.3" font-family="Helvetica,sans-Serif" font-size="14.00" fill="#343541">추가 서비스 제공</text>
</g>
<!-- 추가 서비스 제공&#45;&gt;수익 -->
<g id="edge9" class="edge">
<title>추가 서비스 제공&#45;&gt;수익</title>
<path fill="none" stroke="#aaaaaa" d="M143.6,-40.92C187.33,-45.25 247.44,-50 300.5,-50 300.5,-50 300.5,-50 395,-50 478.52,-50 536.96,-149.19 560.9,-198.64"/>
<polygon fill="#aaaaaa" stroke="#aaaaaa" points="557.8,-200.27 565.23,-207.83 564.13,-197.29 557.8,-200.27"/>
</g>
</g>
</svg>
